<?xml version="1.0" encoding="UTF-8" standalone="no"?><svg xmlns="http://www.w3.org/2000/svg" xmlns:xlink="http://www.w3.org/1999/xlink" clip-rule="evenodd" stroke-miterlimit="4.00" viewBox="0 0 513 343"><desc>SVG generated by Keynote</desc><defs></defs><g transform="matrix(1.00, 0.00, -0.00, -1.00, 0.0, 343.0)"><text xml:space="preserve" font-family="Gotham-Book" font-size="80.0" fill="#000000" transform="matrix(1.00, 0.00, -0.00, -1.00, 0.0, 283.0)">w</text><text xml:space="preserve" font-family="Gotham-Book" font-size="80.0" fill="#000000" transform="matrix(1.00, 0.00, -0.00, -1.00, 68.9, 283.0)">i</text><text xml:space="preserve" font-family="Gotham-Book" font-size="80.0" fill="#000000" transform="matrix(1.00, 0.00, -0.00, -1.00, 89.9, 283.0)">k</text><text xml:space="preserve" font-family="Gotham-Book" font-size="80.0" fill="#000000" transform="matrix(1.00, 0.00, -0.00, -1.00, 135.4, 283.0)">i</text><text xml:space="preserve" font-family="Gotham-Book" font-size="80.0" fill="#000000" transform="matrix(1.00, 0.00, -0.00, -1.00, 156.5, 283.0)">l</text><text xml:space="preserve" font-family="Gotham-Book" font-size="80.0" fill="#000000" transform="matrix(1.00, 0.00, -0.00, -1.00, 177.5, 283.0)">e</text><text xml:space="preserve" font-family="Gotham-Book" font-size="80.0" fill="#000000" transform="matrix(1.00, 0.00, -0.00, -1.00, 224.9, 283.0)">a</text><text xml:space="preserve" font-family="Gotham-Book" font-size="80.0" fill="#000000" transform="matrix(1.00, 0.00, -0.00, -1.00, 271.2, 283.0)">k</text><text xml:space="preserve" font-family="Gotham-Book" font-size="80.0" fill="#000000" transform="matrix(1.00, 0.00, -0.00, -1.00, 316.7, 283.0)">s</text><text xml:space="preserve" font-family="Gotham-Book" font-size="80.0" fill="#000000" transform="matrix(1.00, 0.00, -0.00, -1.00, 356.6, 283.0)">.</text><text xml:space="preserve" font-family="Gotham-Book" font-size="80.0" fill="#000000" transform="matrix(1.00, 0.00, -0.00, -1.00, 374.6, 283.0)">o</text><text xml:space="preserve" font-family="Gotham-Book" font-size="80.0" fill="#000000" transform="matrix(1.00, 0.00, -0.00, -1.00, 426.2, 283.0)">r</text><text xml:space="preserve" font-family="Gotham-Book" font-size="80.0" fill="#000000" transform="matrix(1.00, 0.00, -0.00, -1.00, 457.0, 283.0)">g</text><text xml:space="preserve" font-family="Gotham-Book" font-size="80.0" fill="#000000" transform="matrix(1.00, 0.00, -0.00, -1.00, 510.1, 283.0)"> </text></g></svg>