<?xml version="1.0" encoding="UTF-8" standalone="no"?><svg xmlns="http://www.w3.org/2000/svg" xmlns:xlink="http://www.w3.org/1999/xlink" clip-rule="evenodd" stroke-miterlimit="4.00" viewBox="0 0 637 76"><desc>SVG generated by Keynote</desc><defs></defs><g transform="matrix(1.00, 0.00, -0.00, -1.00, 0.0, 76.0)"><text xml:space="preserve" font-family="Gotham-XLight" font-size="80.0" fill="#000000" transform="matrix(1.00, 0.00, -0.00, -1.00, -4.0, 15.0)">G</text><text xml:space="preserve" font-family="Gotham-XLight" font-size="80.0" fill="#000000" transform="matrix(1.00, 0.00, -0.00, -1.00, 58.5, 15.0)">l</text><text xml:space="preserve" font-family="Gotham-XLight" font-size="80.0" fill="#000000" transform="matrix(1.00, 0.00, -0.00, -1.00, 77.0, 15.0)">o</text><text xml:space="preserve" font-family="Gotham-XLight" font-size="80.0" fill="#000000" transform="matrix(1.00, 0.00, -0.00, -1.00, 127.8, 15.0)">b</text><text xml:space="preserve" font-family="Gotham-XLight" font-size="80.0" fill="#000000" transform="matrix(1.00, 0.00, -0.00, -1.00, 180.4, 15.0)">a</text><text xml:space="preserve" font-family="Gotham-XLight" font-size="80.0" fill="#000000" transform="matrix(1.00, 0.00, -0.00, -1.00, 225.9, 15.0)">l</text><text xml:space="preserve" font-family="Gotham-XLight" font-size="80.0" fill="#000000" transform="matrix(1.00, 0.00, -0.00, -1.00, 244.4, 15.0)"> </text><text xml:space="preserve" font-family="Gotham-XLight" font-size="80.0" fill="#000000" transform="matrix(1.00, 0.00, -0.00, -1.00, 267.4, 15.0)">E</text><text xml:space="preserve" font-family="Gotham-XLight" font-size="80.0" fill="#000000" transform="matrix(1.00, 0.00, -0.00, -1.00, 320.6, 15.0)">c</text><text xml:space="preserve" font-family="Gotham-XLight" font-size="80.0" fill="#000000" transform="matrix(1.00, 0.00, -0.00, -1.00, 365.8, 15.0)">o</text><text xml:space="preserve" font-family="Gotham-XLight" font-size="80.0" fill="#000000" transform="matrix(1.00, 0.00, -0.00, -1.00, 416.7, 15.0)">n</text><text xml:space="preserve" font-family="Gotham-XLight" font-size="80.0" fill="#000000" transform="matrix(1.00, 0.00, -0.00, -1.00, 465.5, 15.0)">o</text><text xml:space="preserve" font-family="Gotham-XLight" font-size="80.0" fill="#000000" transform="matrix(1.00, 0.00, -0.00, -1.00, 516.4, 15.0)">m</text><text xml:space="preserve" font-family="Gotham-XLight" font-size="80.0" fill="#000000" transform="matrix(1.00, 0.00, -0.00, -1.00, 591.1, 15.0)">y</text></g></svg>