<?xml version="1.0" encoding="UTF-8" standalone="no"?><svg xmlns="http://www.w3.org/2000/svg" xmlns:xlink="http://www.w3.org/1999/xlink" clip-rule="evenodd" stroke-miterlimit="4.00" viewBox="0 0 433 76"><desc>SVG generated by Keynote</desc><defs></defs><g transform="matrix(1.00, 0.00, -0.00, -1.00, 0.0, 76.0)"><text xml:space="preserve" font-family="Gotham-XLight" font-size="80.0" fill="#000000" transform="matrix(1.00, 0.00, -0.00, -1.00, -7.0, 15.0)">I</text><text xml:space="preserve" font-family="Gotham-XLight" font-size="80.0" fill="#000000" transform="matrix(1.00, 0.00, -0.00, -1.00, 13.5, 15.0)">n</text><text xml:space="preserve" font-family="Gotham-XLight" font-size="80.0" fill="#000000" transform="matrix(1.00, 0.00, -0.00, -1.00, 62.3, 15.0)">t</text><text xml:space="preserve" font-family="Gotham-XLight" font-size="80.0" fill="#000000" transform="matrix(1.00, 0.00, -0.00, -1.00, 93.0, 15.0)">e</text><text xml:space="preserve" font-family="Gotham-XLight" font-size="80.0" fill="#000000" transform="matrix(1.00, 0.00, -0.00, -1.00, 139.6, 15.0)">l</text><text xml:space="preserve" font-family="Gotham-XLight" font-size="80.0" fill="#000000" transform="matrix(1.00, 0.00, -0.00, -1.00, 158.1, 15.0)">l</text><text xml:space="preserve" font-family="Gotham-XLight" font-size="80.0" fill="#000000" transform="matrix(1.00, 0.00, -0.00, -1.00, 176.6, 15.0)">i</text><text xml:space="preserve" font-family="Gotham-XLight" font-size="80.0" fill="#000000" transform="matrix(1.00, 0.00, -0.00, -1.00, 195.1, 15.0)">g</text><text xml:space="preserve" font-family="Gotham-XLight" font-size="80.0" fill="#000000" transform="matrix(1.00, 0.00, -0.00, -1.00, 247.2, 15.0)">e</text><text xml:space="preserve" font-family="Gotham-XLight" font-size="80.0" fill="#000000" transform="matrix(1.00, 0.00, -0.00, -1.00, 293.9, 15.0)">n</text><text xml:space="preserve" font-family="Gotham-XLight" font-size="80.0" fill="#000000" transform="matrix(1.00, 0.00, -0.00, -1.00, 342.7, 15.0)">c</text><text xml:space="preserve" font-family="Gotham-XLight" font-size="80.0" fill="#000000" transform="matrix(1.00, 0.00, -0.00, -1.00, 387.9, 15.0)">e</text></g></svg>