<?xml version="1.0" encoding="UTF-8" standalone="no"?><svg xmlns="http://www.w3.org/2000/svg" xmlns:xlink="http://www.w3.org/1999/xlink" clip-rule="evenodd" stroke-miterlimit="4.00" viewBox="0 0 1024 768"><desc>SVG generated by Keynote</desc><defs></defs><g transform="matrix(1.00, 0.00, -0.00, -1.00, 0.0, 768.0)"><path d="M 0.0 768.0 L 1024.0 768.0 L 1024.0 0.0 L 0.0 0.0 Z M 0.0 768.0 " fill="#FEFFFF"></path><g opacity="0.30"><g><clipPath id="clip-90"><path d="M 0.0 0.0 L 1024.0 0.0 L 1024.0 768.0 L 0.0 768.0 Z M 0.0 0.0 "></path></clipPath><g clip-path="url(#clip-90)"><image xlink:href="../../615F7CD4-E262-41F7-8138-806EC6AB1FAB/assets/F6FE8DA18876574A9457AC9E4901F4D0.jpeg" width="1068.00" height="768.00" transform="matrix(1.09, 0.00, -0.00, -1.09, -45.0, 803.0)"></image></g></g></g><g opacity="0.80"><g><clipPath id="clip-91"><path d="M 70.0 369.0 L 516.0 369.0 L 516.0 696.0 L 70.0 696.0 Z M 70.0 369.0 "></path></clipPath><g clip-path="url(#clip-91)"><path d="M 71.6 694.9 L 514.9 694.9 L 514.9 370.3 L 71.6 370.3 Z M 71.6 694.9 " fill="#FEFFFF"></path></g></g></g><text xml:space="preserve" font-family="Gotham-XLight" font-size="80.0" fill="#000000" transform="matrix(1.00, 0.00, -0.00, -1.00, 117.0, 585.0)">T</text><text xml:space="preserve" font-family="Gotham-XLight" font-size="80.0" fill="#000000" transform="matrix(1.00, 0.00, -0.00, -1.00, 165.6, 585.0)">h</text><text xml:space="preserve" font-family="Gotham-XLight" font-size="80.0" fill="#000000" transform="matrix(1.00, 0.00, -0.00, -1.00, 214.4, 585.0)">e</text><text xml:space="preserve" font-family="Gotham-XLight" font-size="80.0" fill="#000000" transform="matrix(1.00, 0.00, -0.00, -1.00, 261.1, 585.0)"> </text><text xml:space="preserve" font-family="Gotham-XLight" font-size="80.0" fill="#000000" transform="matrix(1.00, 0.00, -0.00, -1.00, 284.1, 585.0)">L</text><text xml:space="preserve" font-family="Gotham-XLight" font-size="80.0" fill="#000000" transform="matrix(1.00, 0.00, -0.00, -1.00, 332.0, 585.0)">a</text><text xml:space="preserve" font-family="Gotham-XLight" font-size="80.0" fill="#000000" transform="matrix(1.00, 0.00, -0.00, -1.00, 377.5, 585.0)">w</text><text xml:space="preserve" font-family="Gotham-XLight" font-size="80.0" fill="#000000" transform="matrix(1.00, 0.00, -0.00, -1.00, 443.6, 585.0)"> </text><image xlink:href="B2887D4467C5CB9E16F73FCFE8B6B54D.jpeg" width="460.00" height="276.00" transform="matrix(1.54, 0.00, -0.00, -1.54, 254.0, 514.0)"></image></g></svg>