<?xml version="1.0" encoding="UTF-8" standalone="no"?><svg xmlns="http://www.w3.org/2000/svg" xmlns:xlink="http://www.w3.org/1999/xlink" clip-rule="evenodd" stroke-miterlimit="4.00" viewBox="0 0 1024 768"><desc>SVG generated by Keynote</desc><defs></defs><g transform="matrix(1.00, 0.00, -0.00, -1.00, 0.0, 768.0)"><path d="M 0.0 768.0 L 1024.0 768.0 L 1024.0 0.0 L 0.0 0.0 Z M 0.0 768.0 " fill="#FEFFFF"></path><g opacity="0.30"><g><clipPath id="clip-86"><path d="M 0.0 0.0 L 1024.0 0.0 L 1024.0 768.0 L 0.0 768.0 Z M 0.0 0.0 "></path></clipPath><g clip-path="url(#clip-86)"><image xlink:href="../../615F7CD4-E262-41F7-8138-806EC6AB1FAB/assets/F6FE8DA18876574A9457AC9E4901F4D0.jpeg" width="1068.00" height="768.00" transform="matrix(1.09, 0.00, -0.00, -1.09, -45.0, 803.0)"></image></g></g></g><g opacity="0.80"><g><clipPath id="clip-87"><path d="M 70.0 396.0 L 516.0 396.0 L 516.0 696.0 L 70.0 696.0 Z M 70.0 396.0 "></path></clipPath><g clip-path="url(#clip-87)"><path d="M 71.6 694.9 L 514.9 694.9 L 514.9 397.8 L 71.6 397.8 Z M 71.6 694.9 " fill="#FEFFFF"></path></g></g></g><text xml:space="preserve" font-family="Gotham-XLight" font-size="80.0" fill="#000000" transform="matrix(1.00, 0.00, -0.00, -1.00, 117.0, 585.0)">H</text><text xml:space="preserve" font-family="Gotham-XLight" font-size="80.0" fill="#000000" transform="matrix(1.00, 0.00, -0.00, -1.00, 177.4, 585.0)">a</text><text xml:space="preserve" font-family="Gotham-XLight" font-size="80.0" fill="#000000" transform="matrix(1.00, 0.00, -0.00, -1.00, 222.9, 585.0)">c</text><text xml:space="preserve" font-family="Gotham-XLight" font-size="80.0" fill="#000000" transform="matrix(1.00, 0.00, -0.00, -1.00, 268.1, 585.0)">k</text><text xml:space="preserve" font-family="Gotham-XLight" font-size="80.0" fill="#000000" transform="matrix(1.00, 0.00, -0.00, -1.00, 312.1, 585.0)">i</text><text xml:space="preserve" font-family="Gotham-XLight" font-size="80.0" fill="#000000" transform="matrix(1.00, 0.00, -0.00, -1.00, 330.6, 585.0)">n</text><text xml:space="preserve" font-family="Gotham-XLight" font-size="80.0" fill="#000000" transform="matrix(1.00, 0.00, -0.00, -1.00, 379.4, 585.0)">g</text><text xml:space="preserve" font-family="Gotham-XLight" font-size="80.0" fill="#000000" transform="matrix(1.00, 0.00, -0.00, -1.00, 431.6, 585.0)"> </text><text xml:space="preserve" font-family="Gotham-XLight" font-size="80.0" fill="#000000" transform="matrix(1.00, 0.00, -0.00, -1.00, 117.0, 518.0)">B</text><text xml:space="preserve" font-family="Gotham-XLight" font-size="80.0" fill="#000000" transform="matrix(1.00, 0.00, -0.00, -1.00, 174.9, 518.0)">e</text><text xml:space="preserve" font-family="Gotham-XLight" font-size="80.0" fill="#000000" transform="matrix(1.00, 0.00, -0.00, -1.00, 221.6, 518.0)">g</text><text xml:space="preserve" font-family="Gotham-XLight" font-size="80.0" fill="#000000" transform="matrix(1.00, 0.00, -0.00, -1.00, 273.7, 518.0)">i</text><text xml:space="preserve" font-family="Gotham-XLight" font-size="80.0" fill="#000000" transform="matrix(1.00, 0.00, -0.00, -1.00, 292.2, 518.0)">n</text><text xml:space="preserve" font-family="Gotham-XLight" font-size="80.0" fill="#000000" transform="matrix(1.00, 0.00, -0.00, -1.00, 341.0, 518.0)">s</text><text xml:space="preserve" font-family="Gotham-XLight" font-size="80.0" fill="#000000" transform="matrix(1.00, 0.00, -0.00, -1.00, 380.4, 518.0)"> </text><image xlink:href="E14BDA57156EA014F90449F66224878B.png" width="643.00" height="304.00" transform="matrix(1.00, 0.00, -0.00, -1.00, 290.0, 443.0)"></image></g></svg>