<?xml version="1.0" encoding="UTF-8" standalone="no"?><svg xmlns="http://www.w3.org/2000/svg" xmlns:xlink="http://www.w3.org/1999/xlink" clip-rule="evenodd" stroke-miterlimit="4.00" viewBox="0 0 1024 768"><desc>SVG generated by Keynote</desc><defs></defs><g transform="matrix(1.00, 0.00, -0.00, -1.00, 0.0, 768.0)"><path d="M 0.0 768.0 L 1024.0 768.0 L 1024.0 0.0 L 0.0 0.0 Z M 0.0 768.0 " fill="#FEFFFF"></path><g opacity="0.30"><g><clipPath id="clip-134"><path d="M 0.0 0.0 L 1024.0 0.0 L 1024.0 768.0 L 0.0 768.0 Z M 0.0 0.0 "></path></clipPath><g clip-path="url(#clip-134)"><image xlink:href="../../615F7CD4-E262-41F7-8138-806EC6AB1FAB/assets/F6FE8DA18876574A9457AC9E4901F4D0.jpeg" width="1068.00" height="768.00" transform="matrix(1.09, 0.00, -0.00, -1.09, -45.0, 803.0)"></image></g></g></g><g opacity="0.80"><g><clipPath id="clip-135"><path d="M 70.0 109.0 L 516.0 109.0 L 516.0 696.0 L 70.0 696.0 Z M 70.0 109.0 "></path></clipPath><g clip-path="url(#clip-135)"><path d="M 71.6 694.9 L 514.9 694.9 L 514.9 110.8 L 71.6 110.8 Z M 71.6 694.9 " fill="#FEFFFF"></path></g></g></g><text xml:space="preserve" font-family="Gotham-XLight" font-size="80.0" fill="#000000" transform="matrix(1.00, 0.00, -0.00, -1.00, 117.0, 585.0)">E</text><text xml:space="preserve" font-family="Gotham-XLight" font-size="80.0" fill="#000000" transform="matrix(1.00, 0.00, -0.00, -1.00, 170.2, 585.0)">c</text><text xml:space="preserve" font-family="Gotham-XLight" font-size="80.0" fill="#000000" transform="matrix(1.00, 0.00, -0.00, -1.00, 215.4, 585.0)">u</text><text xml:space="preserve" font-family="Gotham-XLight" font-size="80.0" fill="#000000" transform="matrix(1.00, 0.00, -0.00, -1.00, 264.2, 585.0)">a</text><text xml:space="preserve" font-family="Gotham-XLight" font-size="80.0" fill="#000000" transform="matrix(1.00, 0.00, -0.00, -1.00, 309.7, 585.0)">d</text><text xml:space="preserve" font-family="Gotham-XLight" font-size="80.0" fill="#000000" transform="matrix(1.00, 0.00, -0.00, -1.00, 362.3, 585.0)">o</text><text xml:space="preserve" font-family="Gotham-XLight" font-size="80.0" fill="#000000" transform="matrix(1.00, 0.00, -0.00, -1.00, 413.2, 585.0)">r</text><text xml:space="preserve" font-family="Gotham-XLight" font-size="80.0" fill="#000000" transform="matrix(1.00, 0.00, -0.00, -1.00, 442.0, 585.0)"> </text><text xml:space="preserve" font-family="Gotham-XLight" font-size="80.0" fill="#000000" transform="matrix(1.00, 0.00, -0.00, -1.00, 117.0, 518.0)">A</text><text xml:space="preserve" font-family="Gotham-XLight" font-size="80.0" fill="#000000" transform="matrix(1.00, 0.00, -0.00, -1.00, 179.1, 518.0)">s</text><text xml:space="preserve" font-family="Gotham-XLight" font-size="80.0" fill="#000000" transform="matrix(1.00, 0.00, -0.00, -1.00, 218.5, 518.0)">y</text><text xml:space="preserve" font-family="Gotham-XLight" font-size="80.0" fill="#000000" transform="matrix(1.00, 0.00, -0.00, -1.00, 264.7, 518.0)">l</text><text xml:space="preserve" font-family="Gotham-XLight" font-size="80.0" fill="#000000" transform="matrix(1.00, 0.00, -0.00, -1.00, 283.2, 518.0)">u</text><text xml:space="preserve" font-family="Gotham-XLight" font-size="80.0" fill="#000000" transform="matrix(1.00, 0.00, -0.00, -1.00, 332.0, 518.0)">m</text><text xml:space="preserve" font-family="Gotham-XLight" font-size="80.0" fill="#000000" transform="matrix(1.00, 0.00, -0.00, -1.00, 406.7, 518.0)"> </text><image xlink:href="../../9320E88F-58A9-413C-8350-A0464A69C3F1/assets/EE0863D170DA4A6EEB01CD09EDF4A50C.jpeg" width="622.00" height="413.00" transform="matrix(1.00, 0.00, -0.00, -1.00, 353.0, 469.0)"></image></g></svg>